<svg width="34" height="10" viewBox="0 0 34 10" fill="none" xmlns="http://www.w3.org/2000/svg">
<path d="M0 9.14063L0.263851 8.40235L0.955081 8.23829V1.51758H0.263851L0 0.609377H0.955081H3.67969C4.57031 0.609377 5.26562 0.802737 5.76562 1.18946C6.26953 1.57227 6.52148 2.14844 6.52148 2.91797C6.52148 3.29688 6.40039 3.63672 6.1582 3.93751C5.91992 4.23438 5.60351 4.45508 5.20898 4.59961C5.55273 4.66993 5.84766 4.8086 6.09375 5.01563C6.33984 5.21875 6.5293 5.46875 6.66211 5.76563C6.79883 6.0586 6.86719 6.38086 6.86719 6.73243C6.86719 7.51368 6.61328 8.11133 6.10547 8.5254C5.59766 8.93555 4.91016 9.14063 4.04297 9.14063H0ZM2.10937 8.23829H4.04297C4.57031 8.23829 4.97851 8.10938 5.26758 7.85157C5.56055 7.58985 5.70703 7.22071 5.70703 6.74415C5.70703 6.40821 5.65234 6.1211 5.54297 5.88282C5.4375 5.64454 5.27344 5.46094 5.05078 5.33204C4.83203 5.20313 4.55469 5.13868 4.21875 5.13868H2.10937V8.23829ZM2.10937 4.23633H3.97851C4.39258 4.23633 4.72656 4.11719 4.98047 3.87891C5.23828 3.63672 5.36719 3.3086 5.36719 2.89454C5.36719 2.4336 5.22266 2.08985 4.93359 1.86329C4.64453 1.63282 4.22656 1.51758 3.67969 1.51758H2.10937V4.23633ZM9.75589 9.26363C9.0957 9.26363 8.59375 9.10352 8.25 8.78321C7.90625 8.45899 7.73437 8.00391 7.73437 7.41797C7.73437 7.01563 7.84375 6.66602 8.0625 6.36915C8.28516 6.06836 8.60547 5.83594 9.02344 5.67188C9.44141 5.50391 9.94139 5.41993 10.5234 5.41993H11.6543V4.79883C11.6543 4.41602 11.5371 4.11915 11.3027 3.90821C11.0723 3.69727 10.7461 3.5918 10.3242 3.5918C10.0586 3.5918 9.82809 3.62501 9.63279 3.69141C9.4375 3.75391 9.25977 3.8418 9.09961 3.95508L8.97656 4.83985H8.08594V3.38672C8.37109 3.15625 8.70312 2.98243 9.08203 2.86524C9.46094 2.74415 9.88089 2.6836 10.3418 2.6836C11.1113 2.6836 11.7149 2.86719 12.1524 3.23438C12.5899 3.60157 12.8086 4.12696 12.8086 4.81055V7.86329C12.8086 7.94532 12.8086 8.0254 12.8086 8.10352C12.8125 8.18165 12.8184 8.25977 12.8262 8.3379L13.4414 9.14063H11.7832C11.7481 8.96875 11.7207 8.81446 11.7012 8.67774C11.6816 8.54102 11.668 8.4043 11.6602 8.26758C11.4375 8.55274 11.1582 8.79102 10.8223 8.98243C10.4902 9.16993 10.1348 9.26363 9.75589 9.26363ZM9.92579 8.29688C10.3086 8.29688 10.6582 8.20508 10.9746 8.02149C11.291 7.8379 11.5176 7.61719 11.6543 7.35938V6.21094H10.4824C9.95119 6.21094 9.55269 6.3379 9.28711 6.5918C9.02148 6.84571 8.88867 7.12891 8.88867 7.44141C8.88867 7.71875 8.97461 7.93165 9.14648 8.08008C9.31836 8.22461 9.57809 8.29688 9.92579 8.29688ZM14.2969 9.14063V8.40235L15.252 8.23829V3.70899L14.2969 3.54493V2.80079H16.4063V8.23829L17.3613 8.40235V9.14063H14.2969ZM15.1934 1.23633V1.56513e-06H16.4063V1.23633H15.1934ZM18.0996 9.14063V8.40235L19.0547 8.23829V0.908207L18.0996 0.744147V1.56513e-06H20.209V8.23829L21.1641 8.40235V9.14063H18.0996ZM22.1719 9.14063V8.40235L22.8164 8.32618L22.7988 8.30274L20.9649 5.93555L21.5625 5.01563L24.1231 8.26172L25.0371 8.40235V9.14063H22.1719ZM20.127 7.30665L19.6992 6.39844L22.4531 3.65625L22.4824 3.6211L21.8027 3.54493V2.80079H24.5332V3.54493L23.7188 3.69727L20.127 7.30665ZM28.2188 9.26363C27.6328 9.26363 27.127 9.12696 26.7012 8.85352C26.2793 8.57618 25.9531 8.19532 25.7227 7.71094C25.4922 7.22266 25.377 6.66602 25.377 6.04102V5.91211C25.377 5.28711 25.4922 4.73243 25.7227 4.24805C25.9531 3.75977 26.2793 3.37696 26.7012 3.09961C27.127 2.82227 27.6289 2.6836 28.207 2.6836C28.793 2.6836 29.2969 2.82227 29.7188 3.09961C30.1445 3.37696 30.4727 3.75782 30.7031 4.24219C30.9336 4.72657 31.0488 5.28321 31.0488 5.91211V6.04102C31.0488 6.66993 30.9336 7.22852 30.7031 7.7168C30.4727 8.20118 30.1465 8.58008 29.7246 8.85352C29.3027 9.12696 28.8008 9.26363 28.2188 9.26363ZM28.2188 8.36133C28.5859 8.36133 28.8926 8.26172 29.1387 8.06251C29.3887 7.85938 29.5762 7.58399 29.7012 7.23633C29.8301 6.88477 29.8945 6.48633 29.8945 6.04102V5.91211C29.8945 5.4668 29.8301 5.07032 29.7012 4.72266C29.5762 4.3711 29.3887 4.09571 29.1387 3.89649C28.8887 3.69336 28.5781 3.5918 28.207 3.5918C27.8399 3.5918 27.5313 3.69336 27.2813 3.89649C27.0313 4.09571 26.8438 4.3711 26.7188 4.72266C26.5938 5.07032 26.5313 5.4668 26.5313 5.91211V6.04102C26.5313 6.48633 26.5938 6.88477 26.7188 7.23633C26.8438 7.58399 27.0313 7.85938 27.2813 8.06251C27.5352 8.26172 27.8477 8.36133 28.2188 8.36133ZM30.7637 9.14063V8.40235L31.7188 8.23829V0.908207L30.7637 0.744147V1.56513e-06H32.8731V8.23829L33.8281 8.40235V9.14063H30.7637Z" fill="white"/>
</svg>
